<svg width="30" height="30" viewBox="0 0 30 30" fill="none" xmlns="http://www.w3.org/2000/svg">
<circle cx="15" cy="15" r="15" fill="#36353D"/>
<path d="M15 0C11.0218 0 7.20644 1.58035 4.3934 4.3934C1.58035 7.20644 0 11.0218 0 15C0 18.9782 1.58035 22.7936 4.3934 25.6066C7.20644 28.4196 11.0218 30 15 30C18.9782 30 22.7936 28.4196 25.6066 25.6066C28.4196 22.7936 30 18.9782 30 15C30 11.0218 28.4196 7.20644 25.6066 4.3934C22.7936 1.58035 18.9782 0 15 0ZM15 27.8571V2.14286C16.6884 2.14286 18.3603 2.47542 19.9202 3.12155C21.4801 3.76768 22.8975 4.71473 24.0914 5.90863C25.2853 7.10252 26.2323 8.51988 26.8785 10.0798C27.5246 11.6397 27.8571 13.3116 27.8571 15C27.8571 16.6884 27.5246 18.3603 26.8785 19.9202C26.2323 21.4801 25.2853 22.8975 24.0914 24.0914C22.8975 25.2853 21.4801 26.2323 19.9202 26.8784C18.3603 27.5246 16.6884 27.8571 15 27.8571Z" fill="#252427"/>
</svg>
