<svg width="50" height="50" viewBox="0 0 50 50" fill="none" xmlns="http://www.w3.org/2000/svg">
<path d="M45.9457 0C46.9254 3.63955e-05 47.872 0.312592 48.6103 0.879863C49.3487 1.44713 49.8289 2.23074 49.9622 3.08578L50 3.57151V46.4296C49.9997 47.3345 49.6095 48.2055 48.9082 48.8667C48.2069 49.5279 47.2468 49.93 46.222 49.9917C45.1972 50.0534 44.184 49.7701 43.3871 49.199C42.5903 48.628 42.0692 47.8118 41.9292 46.9153L41.8913 46.4296V3.57151C41.8913 2.62428 42.3185 1.71586 43.0788 1.04607C43.8391 0.376282 44.8704 0 45.9457 0ZM1.18571 1.04764C1.87218 0.442782 2.78227 0.0750227 3.75049 0.0112286C4.71872 -0.0525655 5.68078 0.191842 6.46176 0.700014L6.91585 1.04764L31.2419 22.4767C31.9285 23.0814 32.346 23.8831 32.4184 24.736C32.4909 25.5889 32.2134 26.4364 31.6365 27.1244L31.2419 27.5244L6.91585 48.9534C6.19147 49.5866 5.2227 49.9558 4.20289 49.9875C3.18308 50.0191 2.18723 49.7108 1.41409 49.1241C0.640955 48.5374 0.147391 47.7155 0.0319091 46.8224C-0.0835726 45.9292 0.18752 45.0305 0.791083 44.3057L1.18571 43.9057L22.6467 25.0005L1.18571 6.09537C0.42646 5.42571 0 4.51796 0 3.57151C0 2.62505 0.42646 1.7173 1.18571 1.04764Z" fill="#FCA311"/>
</svg>
