<svg width="40" height="40" viewBox="0 0 40 40" fill="none" xmlns="http://www.w3.org/2000/svg">
<path d="M12 28L10.808 27.4027C10.6832 27.6528 10.6401 27.9358 10.6849 28.2117C10.7296 28.4876 10.86 28.7424 11.0575 28.9402C11.255 29.138 11.5096 29.2688 11.7855 29.3139C12.0613 29.3591 12.3444 29.3165 12.5947 29.192L12 28ZM17.3333 17.3333L16.736 16.1413C16.4788 16.2702 16.2702 16.4788 16.1413 16.736L17.3333 17.3333ZM28 12L29.192 12.5973C29.3168 12.3472 29.3599 12.0642 29.3151 11.7883C29.2704 11.5124 29.14 11.2576 28.9425 11.0598C28.745 10.862 28.4904 10.7312 28.2145 10.6861C27.9387 10.6409 27.6556 10.6835 27.4053 10.808L28 12ZM22.6667 22.6667L23.264 23.8587C23.5212 23.7298 23.7298 23.5212 23.8587 23.264L22.6667 22.6667ZM20 37.3333C15.4029 37.3333 10.9941 35.5071 7.74348 32.2565C4.49285 29.0059 2.66667 24.5971 2.66667 20H0C0 25.3043 2.10714 30.3914 5.85786 34.1421C9.60859 37.8929 14.6957 40 20 40V37.3333ZM37.3333 20C37.3333 22.2762 36.885 24.5302 36.0139 26.6332C35.1428 28.7362 33.8661 30.647 32.2565 32.2565C30.647 33.8661 28.7362 35.1428 26.6332 36.0139C24.5302 36.885 22.2762 37.3333 20 37.3333V40C25.3043 40 30.3914 37.8929 34.1421 34.1421C37.8929 30.3914 40 25.3043 40 20H37.3333ZM20 2.66667C22.2762 2.66667 24.5302 3.11501 26.6332 3.98609C28.7362 4.85717 30.647 6.13393 32.2565 7.74348C33.8661 9.35303 35.1428 11.2638 36.0139 13.3668C36.885 15.4698 37.3333 17.7238 37.3333 20H40C40 14.6957 37.8929 9.60859 34.1421 5.85786C30.3914 2.10714 25.3043 0 20 0V2.66667ZM20 0C14.6957 0 9.60859 2.10714 5.85786 5.85786C2.10714 9.60859 0 14.6957 0 20H2.66667C2.66667 15.4029 4.49285 10.9941 7.74348 7.74348C10.9941 4.49285 15.4029 2.66667 20 2.66667V0ZM13.192 28.5973L18.5253 17.9307L16.1413 16.736L10.808 27.4027L13.192 28.5973ZM17.9307 18.5253L28.5973 13.192L27.4027 10.808L16.736 16.1413L17.9307 18.5253ZM26.808 11.4053L21.4747 22.072L23.8587 23.264L29.192 12.5973L26.808 11.4053ZM22.0693 21.472L11.4027 26.8053L12.5973 29.1893L23.264 23.8587L22.0693 21.472Z" fill="#FCA311"/>
</svg>
