<svg width="60" height="60" viewBox="0 0 60 60" fill="none" xmlns="http://www.w3.org/2000/svg">
<path d="M30 0C24.0666 0 18.2664 1.75947 13.3329 5.05591C8.39943 8.35235 4.55426 13.0377 2.28363 18.5195C0.0129986 24.0013 -0.581101 30.0333 0.576455 35.8527C1.73401 41.6721 4.59123 47.0176 8.78681 51.2132C12.9824 55.4088 18.3279 58.266 24.1473 59.4235C29.9667 60.5811 35.9987 59.987 41.4805 57.7164C46.9623 55.4457 51.6477 51.6006 54.9441 46.6671C58.2405 41.7336 60 35.9334 60 30C60 22.0435 56.8393 14.4129 51.2132 8.78679C45.5871 3.1607 37.9565 0 30 0ZM45.9579 31.9179L20.2436 44.775C19.9168 44.9383 19.5537 45.0153 19.1888 44.9988C18.8238 44.9823 18.4692 44.8727 18.1585 44.6806C17.8478 44.4884 17.5914 44.22 17.4137 43.9009C17.2359 43.5817 17.1427 43.2224 17.1429 42.8571V17.1429C17.1431 16.7777 17.2366 16.4187 17.4145 16.0999C17.5924 15.781 17.8488 15.5129 18.1594 15.321C18.4701 15.1291 18.8246 15.0197 19.1893 15.0033C19.5541 14.9869 19.917 15.0639 20.2436 15.2271L45.9579 28.0843C46.3133 28.2624 46.6122 28.536 46.8211 28.8743C47.03 29.2126 47.1406 29.6024 47.1406 30C47.1406 30.3976 47.03 30.7874 46.8211 31.1257C46.6122 31.464 46.3133 31.7376 45.9579 31.9157V31.9179Z" fill="white"/>
</svg>
