<svg width="62" height="62" viewBox="0 0 62 62" fill="none" xmlns="http://www.w3.org/2000/svg">
<path d="M18.6429 43.8574V43.8571V18.1431C18.643 17.8632 18.7147 17.5879 18.8511 17.3435C18.9875 17.099 19.1841 16.8935 19.4222 16.7464C19.6604 16.5992 19.9322 16.5154 20.2118 16.5028C20.4914 16.4902 20.7696 16.5493 21.02 16.6744C21.02 16.6744 21.02 16.6744 21.0201 16.6744L46.7338 29.5313C47.0064 29.6679 47.2355 29.8776 47.3956 30.137C47.5558 30.3963 47.6406 30.6952 47.6406 31C47.6406 31.3048 47.5558 31.6037 47.3956 31.863C47.2355 32.1224 47.0064 32.3321 46.7338 32.4687L46.4579 32.607V32.6088L21.0201 45.3277C21.02 45.3277 21.02 45.3278 21.02 45.3278C20.7695 45.4529 20.4911 45.512 20.2114 45.4993C19.9316 45.4866 19.6597 45.4027 19.4215 45.2553C19.1833 45.108 18.9868 44.9022 18.8505 44.6576C18.7142 44.4129 18.6427 44.1374 18.6429 43.8574ZM31 0.5C24.9677 0.5 19.0708 2.28879 14.0551 5.64018C9.03942 8.99156 5.13016 13.755 2.82169 19.3282C0.513215 24.9013 -0.0907867 31.0338 1.08606 36.9502C2.26291 42.8667 5.16775 48.3012 9.43325 52.5667C13.6988 56.8322 19.1333 59.7371 25.0498 60.9139C30.9662 62.0908 37.0987 61.4868 42.6719 59.1783C48.245 56.8698 53.0084 52.9606 56.3598 47.9449C59.7112 42.9292 61.5 37.0323 61.5 31C61.5 22.9109 58.2866 15.1531 52.5668 9.43324C46.8469 3.71338 39.0891 0.5 31 0.5Z" fill="white" fill-opacity="0.8" stroke="#14213D"/>
</svg>
