<svg width="43" height="44" viewBox="0 0 43 44" fill="none" xmlns="http://www.w3.org/2000/svg">
<path d="M5.26215 2.24417C3.47517 1.35113 1.49719 3.0562 2.11619 4.95528L6.13014 17.2608C6.24367 17.6084 6.45034 17.9183 6.72767 18.1567C7.005 18.3951 7.34239 18.5528 7.70312 18.6129L23.563 21.256C24.3979 21.396 24.3979 22.596 23.563 22.736L7.70412 25.3791C7.34339 25.4392 7.006 25.5969 6.72867 25.8353C6.45134 26.0737 6.24467 26.3836 6.13114 26.7312L2.11619 39.0437C1.49619 40.9438 3.47517 42.6489 5.26215 41.7558L40.7558 24.0131C42.4147 23.183 42.4147 20.816 40.7558 19.9869L5.26215 2.24417Z" fill="#39507A"/>
<path d="M5.48572 1.79693L5.48567 1.79691C3.3015 0.705377 0.884344 2.78941 1.6408 5.11023L1.64084 5.11034L5.65479 17.4159L5.65484 17.416C5.79675 17.8506 6.05508 18.2379 6.40175 18.5359C6.74838 18.8338 7.17005 19.031 7.62093 19.1061C7.62098 19.1061 7.62103 19.1061 7.62107 19.1061L23.4803 21.7491C23.4804 21.7491 23.4805 21.7491 23.4807 21.7492C23.5671 21.7637 23.6115 21.7994 23.6378 21.8333C23.6683 21.8726 23.6892 21.9299 23.6892 21.996C23.6892 22.0621 23.6683 22.1194 23.6378 22.1587C23.6114 22.1926 23.5669 22.2284 23.4803 22.2429L7.62208 24.8859C7.62203 24.8859 7.62198 24.8859 7.62193 24.8859C7.17105 24.961 6.74938 25.1582 6.40275 25.4561C6.05608 25.7541 5.79775 26.1414 5.65584 26.576L5.65578 26.5762L1.64085 38.8886C0.883157 41.2107 3.30166 43.2946 5.48567 42.2031L5.48572 42.2031L40.9793 24.4603L40.9795 24.4602C43.0066 23.446 43.0071 20.5531 40.9793 19.5397C40.9793 19.5397 40.9793 19.5397 40.9793 19.5397L5.48572 1.79693Z" stroke="black" stroke-opacity="0.5"/>
</svg>
