<svg width="50" height="50" viewBox="0 0 50 50" fill="none" xmlns="http://www.w3.org/2000/svg">
<path d="M4.05434 50C3.07461 50 2.12803 49.6874 1.38966 49.1201C0.651295 48.5529 0.171082 47.7693 0.037838 46.9142L0 46.4285L0 3.57042C0.000312805 2.66552 0.390537 1.79447 1.09182 1.13326C1.79311 0.472054 2.75316 0.0699883 3.778 0.00830841C4.80284 -0.0533676 5.81605 0.229939 6.6129 0.800983C7.40975 1.37203 7.93083 2.18824 8.07085 3.08469L8.10868 3.57042L8.10868 46.4285C8.10868 47.3757 7.68153 48.2841 6.92119 48.9539C6.16086 49.6237 5.12962 50 4.05434 50ZM48.8143 48.9524C48.1278 49.5572 47.2177 49.925 46.2495 49.9888C45.2813 50.0526 44.3192 49.8082 43.5382 49.3L43.0842 48.9524L18.7581 27.5233C18.0715 26.9186 17.654 26.1169 17.5816 25.264C17.5091 24.4111 17.7866 23.5636 18.3635 22.8756L18.7581 22.4756L43.0842 1.04655C43.8085 0.413406 44.7773 0.0441742 45.7971 0.0125389C46.8169 -0.0190964 47.8128 0.289192 48.5859 0.875881C49.359 1.46257 49.8526 2.2845 49.9681 3.17765C50.0836 4.07079 49.8125 4.96945 49.2089 5.69427L48.8143 6.09428L27.3533 24.9995L48.8143 43.9046C49.5735 44.5743 50 45.482 50 46.4285C50 47.3749 49.5735 48.2827 48.8143 48.9524Z" fill="#FCA311"/>
</svg>
