<svg width="62" height="62" viewBox="0 0 62 62" fill="none" xmlns="http://www.w3.org/2000/svg">
<path d="M31 1C25.0666 1 19.2664 2.75947 14.3329 6.05591C9.39943 9.35235 5.55426 14.0377 3.28363 19.5195C1.013 25.0013 0.418899 31.0333 1.57646 36.8527C2.73401 42.6721 5.59123 48.0176 9.78681 52.2132C13.9824 56.4088 19.3279 59.266 25.1473 60.4235C30.9667 61.5811 36.9987 60.987 42.4805 58.7164C47.9623 56.4457 52.6477 52.6006 55.9441 47.6671C59.2405 42.7336 61 36.9334 61 31C61 23.0435 57.8393 15.4129 52.2132 9.78679C46.5871 4.1607 38.9565 1 31 1ZM43.8571 39.5714C43.8571 40.7081 43.4056 41.7982 42.6019 42.6019C41.7982 43.4056 40.7081 43.8571 39.5714 43.8571H22.4286C21.2919 43.8571 20.2019 43.4056 19.3981 42.6019C18.5944 41.7982 18.1429 40.7081 18.1429 39.5714V22.4286C18.1429 21.2919 18.5944 20.2018 19.3981 19.3981C20.2019 18.5944 21.2919 18.1429 22.4286 18.1429H39.5714C40.7081 18.1429 41.7982 18.5944 42.6019 19.3981C43.4056 20.2018 43.8571 21.2919 43.8571 22.4286V39.5714Z" fill="white" fill-opacity="0.8"/>
<path d="M31 0.5C24.9677 0.5 19.0708 2.28879 14.0551 5.64018C9.03942 8.99156 5.13016 13.755 2.82169 19.3282C0.513215 24.9013 -0.0907867 31.0338 1.08606 36.9502C2.26291 42.8667 5.16775 48.3012 9.43325 52.5667C13.6988 56.8322 19.1333 59.7371 25.0498 60.9139C30.9662 62.0908 37.0987 61.4868 42.6719 59.1783C48.245 56.8698 53.0084 52.9606 56.3598 47.9449C59.7112 42.9292 61.5 37.0323 61.5 31C61.5 22.9109 58.2866 15.1531 52.5668 9.43324C46.8469 3.71338 39.0891 0.5 31 0.5ZM43.3571 39.5714C43.3571 40.5755 42.9583 41.5384 42.2483 42.2483C41.5384 42.9583 40.5755 43.3571 39.5714 43.3571H22.4286C21.4246 43.3571 20.4616 42.9583 19.7517 42.2483C19.0417 41.5384 18.6429 40.5755 18.6429 39.5714V22.4286C18.6429 21.4245 19.0417 20.4616 19.7517 19.7517C20.4616 19.0417 21.4246 18.6429 22.4286 18.6429H39.5714C40.5755 18.6429 41.5384 19.0417 42.2483 19.7517C42.9583 20.4616 43.3571 21.4245 43.3571 22.4286V39.5714Z" stroke="#14213D" stroke-opacity="0.5"/>
</svg>
