<svg width="60" height="60" viewBox="0 0 60 60" fill="none" xmlns="http://www.w3.org/2000/svg">
<path d="M30 0C24.0666 0 18.2664 1.75947 13.3329 5.05591C8.39943 8.35235 4.55426 13.0377 2.28363 18.5195C0.0129986 24.0013 -0.581101 30.0333 0.576455 35.8527C1.73401 41.6721 4.59123 47.0176 8.78681 51.2132C12.9824 55.4088 18.3279 58.266 24.1473 59.4235C29.9667 60.5811 35.9987 59.987 41.4805 57.7164C46.9623 55.4457 51.6477 51.6006 54.9441 46.6671C58.2405 41.7336 60 35.9334 60 30C60 22.0435 56.8393 14.4129 51.2132 8.78679C45.5871 3.1607 37.9565 0 30 0ZM42.8571 38.5714C42.8571 39.7081 42.4056 40.7982 41.6019 41.6019C40.7982 42.4056 39.7081 42.8571 38.5714 42.8571H21.4286C20.2919 42.8571 19.2019 42.4056 18.3981 41.6019C17.5944 40.7982 17.1429 39.7081 17.1429 38.5714V21.4286C17.1429 20.2919 17.5944 19.2018 18.3981 18.3981C19.2019 17.5944 20.2919 17.1429 21.4286 17.1429H38.5714C39.7081 17.1429 40.7982 17.5944 41.6019 18.3981C42.4056 19.2018 42.8571 20.2919 42.8571 21.4286V38.5714Z" fill="white"/>
</svg>
