<svg width="25" height="30" viewBox="0 0 25 30" fill="none" xmlns="http://www.w3.org/2000/svg">
<path d="M20.8333 0H4.16667C3.0616 0 2.00179 0.395088 1.22039 1.09835C0.438987 1.80161 0 2.75544 0 3.75V26.25C0 27.2446 0.438987 28.1984 1.22039 28.9016C2.00179 29.6049 3.0616 30 4.16667 30H20.8333C21.9384 30 22.9982 29.6049 23.7796 28.9016C24.561 28.1984 25 27.2446 25 26.25V3.75C25 2.75544 24.561 1.80161 23.7796 1.09835C22.9982 0.395088 21.9384 0 20.8333 0ZM6.25 7.5H18.75C19.0263 7.5 19.2912 7.59877 19.4866 7.77459C19.6819 7.9504 19.7917 8.18886 19.7917 8.4375C19.7917 8.68614 19.6819 8.9246 19.4866 9.10041C19.2912 9.27623 19.0263 9.375 18.75 9.375H6.25C5.97373 9.375 5.70878 9.27623 5.51343 9.10041C5.31808 8.9246 5.20833 8.68614 5.20833 8.4375C5.20833 8.18886 5.31808 7.9504 5.51343 7.77459C5.70878 7.59877 5.97373 7.5 6.25 7.5ZM5.20833 12.1875C5.20833 11.9389 5.31808 11.7004 5.51343 11.5246C5.70878 11.3488 5.97373 11.25 6.25 11.25H18.75C19.0263 11.25 19.2912 11.3488 19.4866 11.5246C19.6819 11.7004 19.7917 11.9389 19.7917 12.1875C19.7917 12.4361 19.6819 12.6746 19.4866 12.8504C19.2912 13.0262 19.0263 13.125 18.75 13.125H6.25C5.97373 13.125 5.70878 13.0262 5.51343 12.8504C5.31808 12.6746 5.20833 12.4361 5.20833 12.1875ZM6.25 15H18.75C19.0263 15 19.2912 15.0988 19.4866 15.2746C19.6819 15.4504 19.7917 15.6889 19.7917 15.9375C19.7917 16.1861 19.6819 16.4246 19.4866 16.6004C19.2912 16.7762 19.0263 16.875 18.75 16.875H6.25C5.97373 16.875 5.70878 16.7762 5.51343 16.6004C5.31808 16.4246 5.20833 16.1861 5.20833 15.9375C5.20833 15.6889 5.31808 15.4504 5.51343 15.2746C5.70878 15.0988 5.97373 15 6.25 15ZM6.25 18.75H12.5C12.7763 18.75 13.0412 18.8488 13.2366 19.0246C13.4319 19.2004 13.5417 19.4389 13.5417 19.6875C13.5417 19.9361 13.4319 20.1746 13.2366 20.3504C13.0412 20.5262 12.7763 20.625 12.5 20.625H6.25C5.97373 20.625 5.70878 20.5262 5.51343 20.3504C5.31808 20.1746 5.20833 19.9361 5.20833 19.6875C5.20833 19.4389 5.31808 19.2004 5.51343 19.0246C5.70878 18.8488 5.97373 18.75 6.25 18.75Z" fill="#39507A"/>
</svg>
