<svg width="25" height="30" viewBox="0 0 25 30" fill="none" xmlns="http://www.w3.org/2000/svg">
<path d="M21.875 30C22.7038 30 23.4987 29.6839 24.0847 29.1213C24.6708 28.5587 25 27.7956 25 27V3C25 2.20435 24.6708 1.44129 24.0847 0.87868C23.4987 0.31607 22.7038 0 21.875 0H12.5V10.5L8.59375 8.25L4.6875 10.5V0H3.125C2.2962 0 1.50134 0.31607 0.915291 0.87868C0.32924 1.44129 0 2.20435 0 3V27C0 27.7956 0.32924 28.5587 0.915291 29.1213C1.50134 29.6839 2.2962 30 3.125 30H21.875Z" fill="#39507A"/>
</svg>
