<svg width="25" height="30" viewBox="0 0 25 30" fill="none" xmlns="http://www.w3.org/2000/svg">
<path d="M16.2188 0L20.3125 5.625V7.5H4.6875V5.625L8.8125 0H16.2188ZM12.5 5.625C13.3594 5.625 14.0625 4.8 14.0625 3.75C14.0625 2.71875 13.3594 1.875 12.5 1.875C11.6406 1.875 10.9375 2.71875 10.9375 3.75C10.9375 4.8 11.6406 5.625 12.5 5.625ZM21.0156 3.75H23.4375C24.2969 3.75 25 4.59375 25 5.625V28.125C25 29.175 24.2969 30 23.4375 30H1.5625C0.703125 30 0 29.175 0 28.125V5.625C0 4.59375 0.703125 3.75 1.5625 3.75H3.98438L3.125 4.93125V9.375H21.875V4.93125L21.0156 3.75ZM18.75 16.875V13.125H6.25V16.875H10.9375V26.25H14.0625V16.875H18.75Z" fill="#39507A"/>
</svg>
