<svg width="25" height="30" viewBox="0 0 25 30" fill="none" xmlns="http://www.w3.org/2000/svg">
<path d="M12.5 17.9167C14.2259 17.9167 15.625 16.6108 15.625 15C15.625 13.3892 14.2259 12.0833 12.5 12.0833C10.7741 12.0833 9.375 13.3892 9.375 15C9.375 16.6108 10.7741 17.9167 12.5 17.9167Z" fill="#39507A"/>
<path d="M21.4286 0H3.57143C2.62423 0 1.71582 0.35119 1.04605 0.976311C0.376274 1.60143 0 2.44928 0 3.33333V26.6667C0 27.5507 0.376274 28.3986 1.04605 29.0237C1.71582 29.6488 2.62423 30 3.57143 30H21.4286C22.3758 30 23.2842 29.6488 23.954 29.0237C24.6237 28.3986 25 27.5507 25 26.6667V3.33333C25 2.44928 24.6237 1.60143 23.954 0.976311C23.2842 0.35119 22.3758 0 21.4286 0ZM21.4286 16.25L18.9821 16.6667C18.8319 17.2095 18.6036 17.7309 18.3036 18.2167L19.7679 20L17.8571 21.7833L15.8571 20.4167C15.3367 20.6967 14.7781 20.9098 14.1964 21.05L13.8393 23.3333H11.1607L10.7143 21.05C10.1326 20.9098 9.57401 20.6967 9.05357 20.4167L7.14286 21.7833L5.23214 20L6.69643 18.1333C6.40359 17.6737 6.17552 17.1808 6.01786 16.6667L3.57143 16.25V13.75L6.01786 13.3333C6.16791 12.7904 6.39618 12.269 6.69643 11.7833L5.23214 10L7.14286 8.21667L9.14286 9.58333C9.6353 9.31002 10.1635 9.09715 10.7143 8.95L11.1607 6.66667H13.8393L14.2857 8.95C14.8673 9.09044 15.4259 9.30347 15.9464 9.58333L17.8571 8.21667L19.7679 10L18.3036 11.8667C18.6036 12.3524 18.8319 12.8738 18.9821 13.4167L21.4286 13.75V16.25Z" fill="#39507A"/>
</svg>
