<svg width="25" height="30" viewBox="0 0 25 30" fill="none" xmlns="http://www.w3.org/2000/svg">
<path fill-rule="evenodd" clip-rule="evenodd" d="M16.129 0.384615C16.129 0.282609 16.0865 0.184781 16.0109 0.112651C15.9353 0.0405219 15.8327 0 15.7258 0H4.43548C3.25912 0 2.13094 0.445741 1.29912 1.23916C0.467308 2.03259 0 3.1087 0 4.23077V25.7692C0 26.8913 0.467308 27.9674 1.29912 28.7608C2.13094 29.5543 3.25912 30 4.43548 30H20.5645C21.7409 30 22.8691 29.5543 23.7009 28.7608C24.5327 27.9674 25 26.8913 25 25.7692V10.6108C25 10.5088 24.9575 10.4109 24.8819 10.3388C24.8063 10.2667 24.7037 10.2262 24.5968 10.2262H17.3387C17.0179 10.2262 16.7102 10.1046 16.4833 9.8882C16.2565 9.67181 16.129 9.37833 16.129 9.07231V0.384615ZM15.7758 17.0554C16.0265 17.2467 16.3466 17.3353 16.6657 17.3015C16.9848 17.2678 17.2768 17.1145 17.4774 16.8754C17.678 16.6363 17.7709 16.331 17.7355 16.0266C17.7001 15.7222 17.5394 15.4437 17.2887 15.2523L13.2661 12.1831C13.0509 12.015 12.7814 11.9232 12.5032 11.9231H12.4903C12.2172 11.9247 11.9527 12.0147 11.7403 12.1785L7.7129 15.2523C7.46223 15.4435 7.30144 15.7218 7.2659 16.026C7.23036 16.3303 7.32298 16.6355 7.52339 16.8746C7.7238 17.1137 8.01558 17.2671 8.33454 17.301C8.6535 17.3349 8.97352 17.2465 9.22419 17.0554L11.2903 15.4769V20.7692C11.2903 20.9208 11.3216 21.0708 11.3824 21.2108C11.4432 21.3508 11.5323 21.478 11.6446 21.5851C11.757 21.6923 11.8903 21.7773 12.0371 21.8352C12.1838 21.8932 12.3411 21.9231 12.5 21.9231C12.6589 21.9231 12.8162 21.8932 12.9629 21.8352C13.1097 21.7773 13.243 21.6923 13.3554 21.5851C13.4677 21.478 13.5568 21.3508 13.6176 21.2108C13.6784 21.0708 13.7097 20.9208 13.7097 20.7692V15.4769L15.7758 17.0554Z" fill="#39507A"/>
<path d="M18.5484 0.883075C18.5484 0.599998 18.8597 0.419998 19.0903 0.596921C19.2855 0.74769 19.4613 0.923075 19.6113 1.12307L24.471 7.58C24.5807 7.72769 24.4613 7.91846 24.271 7.91846H18.9516C18.8447 7.91846 18.7421 7.87794 18.6665 7.80581C18.5909 7.73368 18.5484 7.63585 18.5484 7.53384V0.883075Z" fill="#39507A"/>
</svg>
