<svg width="61" height="61" viewBox="0 0 61 61" fill="none" xmlns="http://www.w3.org/2000/svg">
<path fill-rule="evenodd" clip-rule="evenodd" d="M12.4703 3.47037C9.83333 6.10437 9.83333 10.3494 9.83333 18.8334V42.8334C9.83333 51.3174 9.83333 55.5624 12.4703 58.1964C15.1043 60.8334 19.3493 60.8334 27.8333 60.8334H33.8333C42.3173 60.8334 46.5623 60.8334 49.1963 58.1964C51.8333 55.5624 51.8333 51.3174 51.8333 42.8334V18.8334C51.8333 10.3494 51.8333 6.10437 49.1963 3.47037C46.5623 0.833374 42.3173 0.833374 33.8333 0.833374H27.8333C19.3493 0.833374 15.1043 0.833374 12.4703 3.47037ZM19.5833 45.8334C19.5833 45.2366 19.8204 44.6643 20.2423 44.2424C20.6643 43.8204 21.2366 43.5834 21.8333 43.5834H30.8333C31.4301 43.5834 32.0024 43.8204 32.4243 44.2424C32.8463 44.6643 33.0833 45.2366 33.0833 45.8334C33.0833 46.4301 32.8463 47.0024 32.4243 47.4244C32.0024 47.8463 31.4301 48.0834 30.8333 48.0834H21.8333C21.2366 48.0834 20.6643 47.8463 20.2423 47.4244C19.8204 47.0024 19.5833 46.4301 19.5833 45.8334ZM21.8333 31.5834C21.2366 31.5834 20.6643 31.8204 20.2423 32.2424C19.8204 32.6643 19.5833 33.2366 19.5833 33.8334C19.5833 34.4301 19.8204 35.0024 20.2423 35.4244C20.6643 35.8463 21.2366 36.0834 21.8333 36.0834H39.8333C40.4301 36.0834 41.0024 35.8463 41.4243 35.4244C41.8463 35.0024 42.0833 34.4301 42.0833 33.8334C42.0833 33.2366 41.8463 32.6643 41.4243 32.2424C41.0024 31.8204 40.4301 31.5834 39.8333 31.5834H21.8333ZM19.5833 21.8334C19.5833 21.2366 19.8204 20.6643 20.2423 20.2424C20.6643 19.8204 21.2366 19.5834 21.8333 19.5834H39.8333C40.4301 19.5834 41.0024 19.8204 41.4243 20.2424C41.8463 20.6643 42.0833 21.2366 42.0833 21.8334C42.0833 22.4301 41.8463 23.0024 41.4243 23.4244C41.0024 23.8463 40.4301 24.0834 39.8333 24.0834H21.8333C21.2366 24.0834 20.6643 23.8463 20.2423 23.4244C19.8204 23.0024 19.5833 22.4301 19.5833 21.8334Z" fill="#39507A"/>
<path d="M12.8237 3.82413L12.8241 3.82373C14.0326 2.6138 15.6291 1.98071 18.0247 1.65854C20.4347 1.33444 23.5772 1.33337 27.8333 1.33337H33.8333C38.0895 1.33337 41.232 1.33444 43.6419 1.65854C46.0375 1.98071 47.634 2.6138 48.8426 3.82373L48.843 3.82413C50.0529 5.03268 50.686 6.62918 51.0082 9.02477C51.3323 11.4347 51.3333 14.5772 51.3333 18.8334V42.8334C51.3333 47.0895 51.3323 50.2321 51.0082 52.642C50.686 55.0376 50.0529 56.6341 48.843 57.8426L48.8426 57.843C47.634 59.0529 46.0375 59.686 43.6419 60.0082C41.232 60.3323 38.0895 60.3334 33.8333 60.3334H27.8333C23.5772 60.3334 20.4347 60.3323 18.0247 60.0082C15.6291 59.686 14.0326 59.0529 12.8241 57.843L12.8237 57.8426C11.6138 56.6341 10.9807 55.0376 10.6585 52.642C10.3344 50.2321 10.3333 47.0895 10.3333 42.8334V18.8334C10.3333 14.5772 10.3344 11.4347 10.6585 9.02477C10.9807 6.62918 11.6138 5.03268 12.8237 3.82413ZM19.8888 43.8888C19.3731 44.4046 19.0833 45.104 19.0833 45.8334C19.0833 46.5627 19.3731 47.2622 19.8888 47.7779C20.4045 48.2936 21.104 48.5834 21.8333 48.5834H30.8333C31.5627 48.5834 32.2621 48.2936 32.7779 47.7779C33.2936 47.2622 33.5833 46.5627 33.5833 45.8334C33.5833 45.104 33.2936 44.4046 32.7779 43.8888C32.2621 43.3731 31.5627 43.0834 30.8333 43.0834H21.8333C21.104 43.0834 20.4045 43.3731 19.8888 43.8888ZM21.8333 31.0834C21.104 31.0834 20.4045 31.3731 19.8888 31.8888C19.3731 32.4046 19.0833 33.104 19.0833 33.8334C19.0833 34.5627 19.3731 35.2622 19.8888 35.7779C20.4045 36.2936 21.104 36.5834 21.8333 36.5834H39.8333C40.5627 36.5834 41.2621 36.2936 41.7779 35.7779C42.2936 35.2622 42.5833 34.5627 42.5833 33.8334C42.5833 33.104 42.2936 32.4046 41.7779 31.8888C41.2621 31.3731 40.5627 31.0834 39.8333 31.0834H21.8333ZM19.8888 19.8888C19.3731 20.4046 19.0833 21.104 19.0833 21.8334C19.0833 22.5627 19.3731 23.2622 19.8888 23.7779C20.4045 24.2936 21.104 24.5834 21.8333 24.5834H39.8333C40.5627 24.5834 41.2621 24.2936 41.7779 23.7779C42.2936 23.2622 42.5833 22.5627 42.5833 21.8334C42.5833 21.104 42.2936 20.4046 41.7779 19.8888C41.2621 19.3731 40.5627 19.0834 39.8333 19.0834H21.8333C21.104 19.0834 20.4045 19.3731 19.8888 19.8888Z" stroke="black" stroke-opacity="0.3"/>
<g opacity="0.5">
<path d="M10.5383 7.00732C9.83333 9.65632 9.83333 13.3643 9.83333 18.8333V42.8333C9.83333 48.3023 9.83333 52.0073 10.5383 54.6593L9.83333 54.6053C6.90833 54.3173 4.94033 53.6663 3.47033 52.1963C0.833332 49.5623 0.833332 45.3173 0.833332 36.8333V24.8333C0.833332 16.3463 0.833332 12.1043 3.47033 9.47032C4.94033 8.00032 6.90833 7.34932 9.83333 7.06132L10.5383 7.00732ZM51.1283 54.6593C51.8333 52.0073 51.8333 48.2993 51.8333 42.8333V18.8333C51.8333 13.3643 51.8333 9.65632 51.1283 7.00732L51.8333 7.06132C54.7583 7.34932 56.7263 8.00032 58.1963 9.47032C60.8333 12.1043 60.8333 16.3433 60.8333 24.8303V36.8303C60.8333 45.3203 60.8333 49.5593 58.1963 52.1963C56.7263 53.6663 54.7583 54.3173 51.8333 54.6053L51.1283 54.6593Z" fill="#39507A"/>
<path d="M3.82389 51.8428L3.82368 51.8426C2.61376 50.634 1.98067 49.0375 1.6585 46.6419C1.33439 44.232 1.33333 41.0895 1.33333 36.8333V24.8333C1.33333 20.5757 1.33439 17.4331 1.65849 15.0236C1.98066 12.6285 2.61372 11.0327 3.82368 9.82408L3.82389 9.82388C5.172 8.47577 6.99908 7.84337 9.87695 7.55945L9.89369 7.55817C9.33329 10.2105 9.33331 13.7884 9.33333 18.7393V18.8333V42.8333V42.9271C9.33331 47.8786 9.33329 51.4542 9.89383 54.1085L9.87695 54.1072C6.99908 53.8233 5.172 53.1909 3.82389 51.8428ZM57.8428 9.82388L57.843 9.82408C59.053 11.0327 59.686 12.6278 60.0082 15.0221C60.3323 17.4309 60.3333 20.5727 60.3333 24.8303V36.8303C60.3333 41.0895 60.3323 44.232 60.0082 46.6415C59.686 49.0366 59.053 50.6326 57.8428 51.8428C56.4947 53.1909 54.6676 53.8233 51.7897 54.1072L51.7728 54.1085C52.3334 51.4538 52.3334 47.8759 52.3333 42.9271V42.8333V18.8333V18.7393C52.3334 13.7884 52.3334 10.2105 51.773 7.55817L51.7897 7.55945C54.6676 7.84337 56.4947 8.47577 57.8428 9.82388Z" stroke="black" stroke-opacity="0.3"/>
</g>
</svg>
